# Blender v3.0.1 OBJ File: ''
# www.blender.org
mtllib fig.mtl
o Cube
v 1.000000 1.000000 -1.000000
v 1.000000 -1.000000 -1.000000
v 1.000000 1.000000 1.000000
v 1.000000 -1.000000 1.000000
v -1.000000 1.000000 -1.000000
v -1.000000 -1.000000 -1.000000
v -1.000000 1.000000 1.000000
v -1.000000 -1.000000 1.000000
v 1.000000 3.054996 1.000000
v -1.000000 3.054996 1.000000
v 1.000000 3.054996 -1.000000
v -1.000000 3.054996 -1.000000
v -4.048834 1.000000 1.000000
v -4.048834 1.000000 -1.000000
v -4.048834 3.054996 1.000000
v -4.048834 3.054996 -1.000000
v -2.524417 3.054996 -1.000000
v -2.524417 3.054996 1.000000
v -2.524417 1.000000 1.000000
v -2.524417 1.000000 -1.000000
v -4.048834 -2.954652 1.000000
v -4.048834 -2.954652 -1.000000
v -2.524417 -2.954652 1.000000
v -2.524417 -2.954652 -1.000000
vt 0.625000 0.500000
vt 0.625000 0.250000
vt 0.625000 0.250000
vt 0.625000 0.500000
vt 0.375000 0.750000
vt 0.625000 0.750000
vt 0.625000 1.000000
vt 0.375000 1.000000
vt 0.375000 0.000000
vt 0.625000 0.000000
vt 0.375000 0.250000
vt 0.125000 0.500000
vt 0.375000 0.500000
vt 0.125000 0.750000
vt 0.875000 0.500000
vt 0.875000 0.750000
vt 0.625000 0.750000
vt 0.625000 1.000000
vt 0.875000 0.750000
vt 0.875000 0.500000
vt 0.875000 0.500000
vt 0.875000 0.750000
vt 0.625000 0.250000
vt 0.625000 0.000000
vt 0.625000 0.000000
vt 0.625000 0.250000
vt 0.625000 1.000000
vt 0.625000 1.000000
vt 0.625000 1.000000
vt 0.625000 1.000000
vt 0.625000 1.000000
vt 0.625000 1.000000
vt 0.625000 0.250000
vt 0.625000 0.250000
vt 0.625000 0.000000
vt 0.625000 0.250000
vt 0.625000 0.000000
vt 0.625000 0.000000
vt 0.625000 0.250000
vn 0.0000 0.0000 -1.0000
vn 0.0000 0.0000 1.0000
vn -1.0000 0.0000 0.0000
vn 0.0000 -1.0000 0.0000
vn 1.0000 0.0000 0.0000
vn 0.0000 1.0000 0.0000
usemtl Material
s off
f 1/1/1 5/2/1 12/3/1 11/4/1
f 4/5/2 3/6/2 7/7/2 8/8/2
f 8/9/3 7/10/3 5/2/3 6/11/3
f 6/12/4 2/13/4 4/5/4 8/14/4
f 2/13/5 1/1/5 3/6/5 4/5/5
f 6/11/1 5/2/1 1/1/1 2/13/1
f 11/4/6 12/15/6 10/16/6 9/17/6
f 7/7/2 3/6/2 9/17/2 10/18/2
f 18/19/6 17/20/6 16/21/6 15/22/6
f 3/6/5 1/1/5 11/4/5 9/17/5
f 14/23/3 13/24/3 15/25/3 16/26/3
f 19/27/2 18/28/2 15/29/2 13/30/2
f 19/27/2 13/30/2 21/31/2 23/32/2
f 17/33/1 20/34/1 14/23/1 16/26/1
f 12/3/1 5/2/1 20/34/1 17/33/1
f 5/2/4 7/10/4 19/35/4 20/34/4
f 7/7/2 10/18/2 18/28/2 19/27/2
f 10/16/6 12/15/6 17/20/6 18/19/6
f 24/36/4 23/37/4 21/38/4 22/39/4
f 20/34/5 19/35/5 23/37/5 24/36/5
f 13/24/3 14/23/3 22/39/3 21/38/3
f 14/23/1 20/34/1 24/36/1 22/39/1
