# Blender v3.0.1 OBJ File: ''
# www.blender.org
mtllib figcolor.mtl
o Cube
v 1.000000 1.000000 -1.000000
v 1.000000 -1.000000 -1.000000
v 1.000000 1.000000 1.000000
v 1.000000 -1.000000 1.000000
v -1.000000 1.000000 -1.000000
v -1.000000 -1.000000 -1.000000
v -1.000000 1.000000 1.000000
v -1.000000 -1.000000 1.000000
v 1.000000 3.054996 1.000000
v -1.000000 3.054996 1.000000
v 1.000000 3.054996 -1.000000
v -1.000000 3.054996 -1.000000
v -4.048834 1.000000 1.000000
v -4.048834 1.000000 -1.000000
v -2.524417 3.054996 -1.000000
v -2.524417 3.054996 1.000000
v -2.524417 1.000000 1.000000
v -2.524417 1.000000 -1.000000
v -4.048834 -2.954652 1.000000
v -4.048834 -2.954652 -1.000000
v -2.524417 -2.954652 1.000000
v -2.524417 -2.954652 -1.000000
vt 0.625000 0.500000
vt 0.625000 0.250000
vt 0.625000 0.250000
vt 0.625000 0.500000
vt 0.375000 0.750000
vt 0.625000 0.750000
vt 0.625000 1.000000
vt 0.375000 1.000000
vt 0.375000 0.000000
vt 0.625000 0.000000
vt 0.375000 0.250000
vt 0.125000 0.500000
vt 0.375000 0.500000
vt 0.125000 0.750000
vt 0.625000 0.750000
vt 0.625000 1.000000
vt 0.625000 1.000000
vt 0.625000 1.000000
vt 0.625000 1.000000
vt 0.625000 0.250000
vt 0.625000 0.250000
vt 0.625000 0.250000
vt 0.625000 1.000000
vt 0.625000 1.000000
vt 0.625000 0.000000
vt 0.875000 0.750000
vt 0.875000 0.500000
vt 0.625000 0.000000
vt 0.625000 0.250000
vt 0.625000 0.000000
vt 0.625000 0.000000
vt 0.625000 0.250000
vt 0.875000 0.500000
vt 0.875000 0.750000
vn 0.0000 0.0000 -1.0000
vn 0.0000 0.0000 1.0000
vn -1.0000 0.0000 0.0000
vn 0.0000 -1.0000 0.0000
vn 1.0000 0.0000 0.0000
vn -0.8031 0.5958 0.0000
vn 0.0000 1.0000 0.0000
usemtl Material1
s off
f 1/1/1 5/2/1 12/3/1 11/4/1
f 4/5/2 3/6/2 7/7/2 8/8/2
f 8/9/3 7/10/3 5/2/3 6/11/3
f 6/12/4 2/13/4 4/5/4 8/14/4
f 2/13/5 1/1/5 3/6/5 4/5/5
f 6/11/1 5/2/1 1/1/1 2/13/1
f 7/7/2 3/6/2 9/15/2 10/16/2
f 16/17/2 13/18/2 17/19/2
f 3/6/5 1/1/5 11/4/5 9/15/5
f 15/20/1 18/21/1 14/22/1

f 17/19/2 13/18/2 19/23/2
f 17/19/2 19/23/2 21/24/2

f 13/25/6 16/26/6 15/27/6 14/22/6
f 12/3/1 5/2/1 18/21/1 15/20/1
f 5/2/4 7/10/4 17/28/4 18/21/4
f 7/7/2 10/16/2 16/17/2 17/19/2
f 22/29/4 21/30/4 19/31/4 20/32/4
f 18/21/5 17/28/5 21/30/5 22/29/5
f 13/25/3 14/22/3 20/32/3 19/31/3
f 14/22/1 18/21/1 22/29/1 20/32/1
usemtl Material2
f 11/4/7 12/33/7 10/34/7 9/15/7
f 10/34/7 12/33/7 15/27/7 16/26/7
